/* XPM */
static char *result[] = {
/* columns rows colors chars-per-pixel */
"50 50 148 2 ",
"   c #010100",
".  c #090700",
"X  c #0E0C00",
"o  c #110E00",
"O  c #151301",
"+  c #181501",
"@  c #1C1A03",
"#  c #111110",
"$  c #1A1A1A",
"%  c #201C00",
"&  c #2A2601",
"*  c #2E2901",
"=  c #322D00",
"-  c #3A3502",
";  c #20201D",
":  c #322E14",
">  c #272728",
",  c #2D2E30",
"<  c #3B3C3E",
"1  c #443E01",
"2  c #4A4301",
"3  c #534C01",
"4  c #5D5503",
"5  c #5F5903",
"6  c #615801",
"7  c #6A5F00",
"8  c #6A6401",
"9  c #726600",
"0  c #7C7403",
"q  c #5E592A",
"w  c #4A4B4D",
"e  c #414243",
"r  c #535354",
"t  c #5A5B5C",
"y  c #6F6B54",
"u  c #5F5F60",
"i  c #636465",
"p  c #666768",
"a  c #6B6C6D",
"s  c #6F7071",
"d  c #717273",
"f  c #797B7C",
"g  c #857C02",
"h  c #8E8403",
"j  c #958B02",
"k  c #9D9101",
"l  c #A29602",
"z  c #A39802",
"x  c #A99D01",
"c  c #AEA102",
"v  c #B4A601",
"b  c #BCAD01",
"n  c #B5A905",
"m  c #BFB001",
"M  c #8C8229",
"N  c #958F31",
"B  c #988E39",
"V  c #9C9236",
"C  c #A2973E",
"Z  c #BDAC29",
"A  c #ADA237",
"S  c #B9A93D",
"D  c #C4B401",
"F  c #C9B702",
"G  c #CDBC02",
"H  c #CAB617",
"J  c #CCB914",
"K  c #D0BE1A",
"L  c #C0AE29",
"P  c #CCBA22",
"I  c #C4B434",
"U  c #C4B439",
"Y  c #D4C201",
"T  c #DECB02",
"R  c #D9C70E",
"E  c #D6C411",
"W  c #DCC91B",
"Q  c #E1CF00",
"!  c #E2CE0C",
"~  c #E5D102",
"^  c #EAD601",
"/  c #EEDA01",
"(  c #E7D409",
")  c #F2DC01",
"_  c #F8DF00",
"`  c #F6E101",
"'  c #FFE500",
"]  c #FEE800",
"[  c #FFE519",
"{  c #D5C223",
"}  c #DECC22",
"|  c #F1DC29",
" . c #FCE63D",
".. c #908542",
"X. c #9A9041",
"o. c #9E9449",
"O. c #8E865A",
"+. c #90885C",
"@. c #948B51",
"#. c #9B925B",
"$. c #A69C4B",
"%. c #B2A745",
"&. c #B6A841",
"*. c #B8A943",
"=. c #B6A748",
"-. c #BAAD4D",
";. c #BFB245",
":. c #B4A754",
">. c #8C8564",
",. c #928D6C",
"<. c #989163",
"1. c #96906D",
"2. c #9B9368",
"3. c #82817A",
"4. c #999371",
"5. c #A69D6F",
"6. c #A7A06A",
"7. c #C9BD5F",
"8. c #FBE766",
"9. c #FAE674",
"0. c #7E7F80",
"q. c #828181",
"w. c #898A8C",
"e. c #979485",
"r. c #989586",
"t. c #8E8F90",
"y. c #8F9091",
"u. c #949596",
"i. c #979898",
"p. c #98999A",
"a. c #9EA0A2",
"s. c #A6A8A9",
"d. c #AAACAD",
"f. c #B5B6B8",
"g. c #BBBCBC",
"h. c #F7E78B",
"j. c #F5E9AB",
"k. c #C4C5C6",
"l. c #C9CBCC",
"z. c #CDCFD0",
"x. c #D3D3D5",
"c. c #D6D7D8",
"v. c #D9DADC",
"b. c #EEEAD4",
"n. c #E4E5E5",
"m. c #E6E7E8",
"M. c #E9EAEB",
"N. c None",
/* pixels */
"N.N.N.N.N.N.N.N.N.N.N.N.N.N.N.N.N.N.N.N.N.N.N.N.N.N.N.N.N.N.N.N.N.N.N.N.N.N.N.N.N.N.N.N.N.N.N.N.N.N.",
"N.N.N.N.N.N.N.N.N.N.N.N.N.N.N.N.N.N.N.N.N.N.N.N.N.N.N.N.N.N.N.N.N.N.N.N.N.N.N.N.N.N.N.N.N.N.N.N.N.N.",
"N.N.N.N.N.N.N.N.N.N.N.N.N.N.N.N.N.N.N.N.N.N.N.N.N.N.N.N.N.N.N.N.N.N.N.N.N.N.N.N.N.N.N.N.N.N.N.N.N.N.",
"N.N.N.N.N.N.N.N.N.N.N.N.N.N.N.N.N.N.N.N.N.N.N.N.N.N.N.N.N.N.N.N.N.N.N.N.N.N.N.N.N.N.N.N.N.N.N.N.N.N.",
"N.N.N.N.N.N.N.N.N.N.N.N.N.N.N.N.N.N.N.N.N.N.N.N.N.N.N.N.N.N.N.N.N.N.N.N.N.N.N.N.N.N.N.N.N.N.N.N.N.N.",
"N.N.N.N.N.N.N.N.N.N.N.N.N.N.N.N.N.N.N.N.N.N.N.N.N.N.N.N.N.N.N.N.N.N.N.N.N.N.N.N.N.N.N.N.N.N.N.N.N.N.",
"N.N.N.N.N.N.N.N.N.N.N.N.N.N.N.N.N.N.N.N.N.N.N.N.N.N.N.N.N.N.N.N.N.N.N.N.N.N.N.N.N.N.N.N.N.N.N.N.N.N.",
"N.N.N.N.N.N.N.N.N.N.N.N.N.N.N.N.N.N.N.N.N.N.N.N.N.N.N.N.N.N.N.N.N.N.N.N.N.N.N.N.N.N.N.N.N.N.N.N.N.N.",
"N.N.N.N.N.N.N.N.N.N.N.N.N.N.N.N.N.N.y.s.f.l.z.l.d.N.N.N.N.N.N.N.N.N.N.N.N.N.N.N.N.N.N.N.N.N.N.N.N.N.",
"N.N.N.N.N.N.N.N.N.N.N.N.N.N.N.N.N.u.v.M.M.M.M.m.m.n.N.N.N.N.N.N.N.N.N.N.N.N.N.N.N.N.N.N.N.N.N.N.N.N.",
"N.N.N.N.N.N.N.N.N.N.N.N.N.N.N.N.N.x.M.M.M.M.M.M.M.m.c.i.N.N.N.N.N.N.N.N.N.N.N.N.N.N.N.N.N.N.N.N.N.N.",
"N.N.N.N.N.N.N.N.N.N.N.N.N.N.N.N.w.m.M.M.M.M.M.M.M.m.M.k.N.N.N.N.N.N.N.N.N.N.N.N.N.N.N.N.N.N.N.N.N.N.",
"N.N.N.N.N.N.N.N.N.N.N.N.N.N.N.N.d.M.M.M.M.M.M.M.M.M.M.M.p.N.N.N.N.N.N.N.N.N.N.N.N.N.N.N.N.N.N.N.N.N.",
"N.N.N.N.N.N.N.N.N.N.N.N.N.N.N.N.p.M.M.M.M.M.M.M.M.M.M.M.g.N.N.N.N.N.N.N.N.N.N.N.N.N.a p N.a d N.N.N.",
"N.N.N.N.N.N.N.N.N.N.N.N.N.N.N.N.N.m.M.M.M.M.M.M.M.M.M.M.c.N.N.N.N.N.N.N.N.N.N.N.N.t N.N.N.N.N.i N.N.",
"N.N.N.N.N.N.N.N.N.N.N.N.N.N.N.N.N.k.M.M.M.M.M.M.M.M.M.n.k.t < q.N.N.N.N.N.N.N.N.p N.N.N.N.N.N.N.N.N.",
"N.N.N.N.N.N.N.N.N.N.N.N.N.N.N.N.N.y.n.M.M.b.j.h.9.8. .M       6 ~ P :.2.N.N.N.i N.N.N.d N.a 0.N.N.N.",
"N.N.N.N.N.N.N.N.N.N.N.N.N.N.N.N.N.p a 3.| [ ' ' ' ' T X       v ' ' ' ] ~ I y 3.N.N.w.N.N.N.N.N.N.N.",
"N.N.N.N.N.N.N.N.N.N.N.N.N.N.N.u >     g ' ' ' ' ' ' k       X ^ ' ' ' ' ' ` n K ,.d N.N.N.N.N.N.N.N.",
"N.N.N.N.N.N.N.N.N.N.N.N.N.N.A @       D ' ' ' ' ' _ =       4 ] ' ' ' ' ' Y ) ] ) o.N.N.N.N.N.N.N.N.",
"N.N.N.N.N.N.N.N.N.N.N.N.O.( x       . ~ ' ' ' ' ' m         k ] ' ' ' ' ] ` ' ' ' _ -.N.N.N.N.N.N.N.",
"N.N.N.N.N.N.N.N.N.N.N.X.^ ' 2       = ` ' ' ' ' ' j         G ' ' ' ' ' ' ' ' ' ' ' ' S N.N.N.N.N.N.",
"N.N.N.N.N.N.N.N.N.N.+.) ' / O       0 ' ' ' ' ' ' 1         ~ ' ' ' ' 7.N G ' ' ' ' ' ` >.N.N.N.N.N.",
"N.N.N.N.N.N.N.N.N.2.! ' ' T         v ' ' ' ' ' / o       * ` ' ' ' F u.r + / ' ' ' ' ' { N.N.N.N.N.",
"N.N.N.N.N.N.N.N.N.} ' ' ' b         F ' ' ' ' ' T         3 ] ' ' ' Y X   4 ` ' ' ' ' ' ' >.N.N.N.N.",
"N.N.N.N.N.N.N.N.$.' ' ' ' l         D ' ' ' ' ' Y         9 ] ' ' ' ' T G ` ' ' ' ' ' ' ' &.N.N.N.N.",
"N.N.N.N.N.N.N.N.E ] ' ' ' l         G ' ' ' ' ' m         9 ' ' ' ' ' ' ' ' ' ' ' ' ' ' ' J N.N.N.N.",
"N.N.N.N.N.N.N.>.` ' ' ' ' l         D ' ' ' ' ' m         0 ] ' ' ' ' ' ' ' ' ' ' ' ' ' ' R N.N.N.N.",
"N.N.N.N.N.N.N.@.' ' ' ' ' l         x ' ' ' ' ' b         8 ' ' ' ' ' ' ' ' ' ' ' ' ' ' ' L N.N.N.N.",
"N.N.N.N.e w # k ' ' ' ' ' x         g ' ' ' ' ' F         - ] ' ' ' ' ' ' ' ' ' ' ' ' ' ' =.N.N.N.N.",
"N.N.a.f i w , V ' ' ' ' ' b         4 ' ' ' ' ' Y         O ) ' ' ' ' ' ' ' ' ' ' ' ' ' ` <.N.N.N.N.",
"N.N.N.N.N.N.N.6.' ' ' ' ' Y         O / ' ' ' ' / X         Y ' ' ' ' ' ' ' ' ' ' ' ' ' P N.N.N.N.N.",
"N.N.N.N.N.N.N.N.) ' ' ' ' ~ .         Y ' ' ' ' ` &         h ' ' ' ' ' ' ' ' ' ' ' ' ` 5.N.N.N.N.N.",
"N.N.N.N.N.N.N.N.U ' ' ' ' ` -         z ' ' ' ' ] g         * / ' ' ' ' ' ' ' ' ' ' ' U N.N.N.N.N.N.",
"N.N.N.N.N.N.N.N.1.^ ' ' ' ' 0         3 ` ] ' ' ' m           g ' ' ' ' ' ' ' ' ' ' ! N.N.N.N.N.N.N.",
"N.N.N.N.N.N.N.N.N.$._ ' ' ' c           Y ] ' ' ' ~ .         O Q ' ' ' ' ' ' ' ' W e.N.N.N.N.N.N.N.",
"N.N.N.N.N.N.N.N.N.N.$.) ' ' ) &         j ' ' ' ' ] 8           3 ^ ' ' ' ' ' ' P N.N.N.N.N.N.N.N.N.",
"N.N.N.N.N.N.N.N.N.N.N.%.) ' ' l         & _ ' ' ' ' F             4 / ' ' ' ) *.N.N.N.N.N.N.N.N.N.N.",
"N.N.N.N.N.N.N.N.N.N.N.N.:.` ' ^ O         c ' ' ' ' ` 2             2 ^ ' { r.N.N.N.N.N.N.N.N.N.N.N.",
"N.N.N.N.N.N.N.N.N.N.N.N.N.4.;.( j         @ ~ ' ' ' ' b               q #.N.N.N.N.N.N.N.N.N.N.N.N.N.",
"N.N.N.N.N.N.N.N.N.N.N.N.N.N.N.N...$         l ' ' ' ' ` 6       $ i d N.N.N.N.N.N.N.N.N.N.N.N.N.N.N.",
"N.N.N.N.N.N.N.N.N.N.N.N.N.N.N.N.N.N.N.e < ; : Y T T H Z B r p N.N.N.N.N.N.N.N.N.N.N.N.N.N.N.N.N.N.N.",
"N.N.N.N.N.N.N.N.N.N.N.N.N.N.N.N.N.N.N.N.N.N.N.N.N.N.N.N.N.N.N.N.N.N.N.N.N.N.N.N.N.N.N.N.N.N.N.N.N.N.",
"N.N.N.N.N.N.N.N.N.N.N.N.N.N.N.N.N.N.N.N.N.N.N.N.N.N.N.N.N.N.N.N.N.N.N.N.N.N.N.N.N.N.N.N.N.N.N.N.N.N.",
"N.N.N.N.N.N.N.N.N.N.N.N.N.N.N.N.N.N.N.N.N.N.N.N.N.N.N.N.N.N.N.N.N.N.N.N.N.N.N.N.N.N.N.N.N.N.N.N.N.N.",
"N.N.N.N.N.N.N.N.N.N.N.N.N.N.N.N.N.N.N.N.N.N.N.N.N.N.N.N.N.N.N.N.N.N.N.N.N.N.N.N.N.N.N.N.N.N.N.N.N.N.",
"N.N.N.N.N.N.N.N.N.N.N.N.N.N.N.N.N.N.N.N.N.N.N.N.N.N.N.N.N.N.N.N.N.N.N.N.N.N.N.N.N.N.N.N.N.N.N.N.N.N.",
"N.N.N.N.N.N.N.N.N.N.N.N.N.N.N.N.N.N.N.N.N.N.N.N.N.N.N.N.N.N.N.N.N.N.N.N.N.N.N.N.N.N.N.N.N.N.N.N.N.N.",
"N.N.N.N.N.N.N.N.N.N.N.N.N.N.N.N.N.N.N.N.N.N.N.N.N.N.N.N.N.N.N.N.N.N.N.N.N.N.N.N.N.N.N.N.N.N.N.N.N.N.",
"N.N.N.N.N.N.N.N.N.N.N.N.N.N.N.N.N.N.N.N.N.N.N.N.N.N.N.N.N.N.N.N.N.N.N.N.N.N.N.N.N.N.N.N.N.N.N.N.N.N."
};
