/* XPM */
static char *result[] = {
/* columns rows colors chars-per-pixel */
"50 50 89 1 ",
"  c #492600",
". c #532B00",
"X c #633300",
"o c #723B00",
"O c #7A3F00",
"+ c #7E4100",
"@ c #854400",
"# c #894600",
"$ c #934C00",
"% c #9E5200",
"& c #AD5A00",
"* c #B35D00",
"= c #B36201",
"- c #BC6200",
"; c #C46600",
": c #C66A01",
"> c #C86E02",
", c #CB7202",
"< c #CE7904",
"1 c #CA720D",
"2 c #D17D05",
"3 c #D58306",
"4 c #D88707",
"5 c #D6850D",
"6 c #D8870A",
"7 c #DB8C09",
"8 c #DF910A",
"9 c #D18118",
"0 c #D6891D",
"q c #E1950B",
"w c #E59B0D",
"e c #E89E0E",
"r c #E69D13",
"t c #E1971B",
"y c #E59D1B",
"u c #EBA20F",
"i c #EEA610",
"p c #EFA810",
"a c #E7A01C",
"s c #EAA41D",
"d c #EFA91D",
"f c #F2AB11",
"g c #F1AC1E",
"h c #F7B213",
"j c #FBB714",
"k c #FBB817",
"l c #FAB71D",
"z c #FBB91C",
"x c #DE9626",
"c c #DF9826",
"v c #DF982E",
"b c #CF8235",
"n c #D58B35",
"m c #D38A39",
"M c #DB973C",
"N c #E09826",
"B c #E6A32C",
"V c #F3B122",
"C c #FBBA23",
"Z c #F8B729",
"A c #FBBD2C",
"S c #EAA936",
"D c #E5A338",
"F c #EAAB3E",
"G c #FCBE31",
"H c #F9BD3A",
"J c #FCC136",
"K c #FCC33C",
"L c #D38D40",
"P c #D59041",
"I c #D99642",
"U c #DD9B43",
"Y c #DFA045",
"T c #E2A345",
"R c #E5A947",
"E c #E9AE48",
"W c #EDB449",
"Q c #F2B740",
"! c #F4BC47",
"~ c #F2BB4B",
"^ c #FCC544",
"/ c #F6C14D",
"( c #FAC64D",
") c #FCC94F",
"_ c #FCCA53",
"` c #FCCC5A",
"' c #FDCE61",
"] c #FDD16B",
"[ c None",
/* pixels */
"[[[[[[[[[[[[[[[[[[[[;;,2221bL[[[[[[[[[[[[[[[[[[[[[",
"[[[[[[[[[[[[[[[[[[2qfjjjjjjk~EI[[[[[[[[[[[[[[[[[[[",
"[[[[[[[[[[[[[[[[[8jkAJJKKKHJ^)(T[[[[[[[[[[[[[[[[[[",
"[[[[[[[[[[[[[[[[[pjCKKKKKKKK^`_~[[[[[[[[[[[[[[[[[[",
"[[[[[[[[[[[[[[[[2<ijzCAGGGACz_~UU[[[[[[[[[[[[[[[[[",
"[[[[[[[[[[[[[[[wjheqqwiffferqD~()E[[[[[[[[[[[[[[[[",
"[[[[[[[[[[[[[[;kjjjjjjfffffjjjA_)~L[[[[[[[[[[[[[[[",
"[[[[[[[[[[[[[[[ujCKKJJAAAAGGGKK()W[[[[[[[[[[[[[[[[",
"[[[[[[[[[[[[[q4;qjCAJJKKKKJKJAl^RLTE[[[[[[[[[[[[[[",
"[[[[[[[[[[[[fjjhw4qihjjjzjjjhi7vW(_)~[[[[[[[[[[[[[",
"[[[[[[[[[[[qjjjkjjkfiifewufeffjjA))))T[[[[[[[[[[[[",
"[[[[[[[[[[[7jjzJJGAZCCkkjjzCCAAJJ`_))U[[[[[[[[[[[[",
"[[[[[[[[[[[;fjjGKKKKKKKKKKKKKKKKK^_)~L[[[[[[[[[[[[",
"[[[[[[[[[[3,:ejjzAJJKKKKKKKKKJJAkG_ELUU[[[[[[[[[[[",
"[[[[[[[[;ujju42uhjkkjzCzCCzzjjkjhSUT~_)WL[[[[[[[[[",
"[[[[[[[[qjjjjjjuqqwufhjjjjjhfewqqdK)))))R[[[[[[[[[",
"[[[[[[[[fjjkjkjkjjjjffuuwwpffkjjjjjG_)))~[[[[[[[[[",
"[[[[[[[;fjjAKKJJAACkjjjjjjjjkkzAGJJK``))~L[[[[[[[[",
"[[[[[[[[7jjCKKKKKKKKKJKJJKJJKKKKKKKKK__)T[[[[[[[[[",
"[[[[[[[[;qjkkJKKKKKKKKKKKKKKKKKKKKKGl^_RL[[[[[[[[[",
"[[[[[[>78,3fjjkZJJKKKKKKKKKJKKKKGCkhj!UIRTP[[[[[[[",
"[[[[[>fjjju34ujjjkkzCACJJAAACCjjjjji4T~))_~L[[[[[[",
"[[[[[ijjjjjjju8wwphjkkjjjjjjjjhprqqihA_))))W[[[[[[",
"[[[[2jjjCAJZCkjjjfuupwufffuwfephjjjkCA_'`)))L[[[[[",
"[[[[2jjjJKKKKKKJJCzjjkjjjjkkkkzCAJKKKK)]])))I[[[[[",
"[[[[>jjjJKKKKKKKKKKKKJJJAGJJJKKKKKKKKK^]`))/L[[[[[",
"[[[[;8jjkJKKKKKKKKKKKKKKKKKKKKKKKKKKKK^'_))TL[[[[[",
"[[[[[;qjjjAJKKKKKKKKKKKKKKKKKKKKKKKJKJJ)))RL[[[[[[",
"[[[[[[;3fkjjCJKKKKKKKKKKKKKKKKKKKKJJCjK(~UL[[[[[[[",
"[[[[[[q2;4fjjjkCAJKKKKKKKKKKK^JJACzjjz~TT(R[[[[[[[",
"[[[[[3jju<;,qujjjjjjzCCCAACzzjjjkjji8mI~))_U[[[[[[",
"[[[[[ujjjkp7:;;37eufjjjjjjjkhfuw7<;>7Q))))(W[[[[[[",
"[[[[[ikjjjjjjpq3,;;;;;*$$&;;;;;,3qijjA)))))W[[[[[[",
"[[[[[7jjjjAJJCCzjhfu4$    @2ufjjjzAAGJ`))))T[[[[[[",
"[[[[[;pjjzKK^KJKKHGZ=      %VJJJKKKKKK')))~L[[[[[[",
"[[[[[[>ujjCKKKKKKKKB#      OcKKKKKKKKJ)))WL[[[[[[[",
"[[[[[[[;7fjzAKKKKKKxO      o9KKKKKKJZJ)/TL[[[[[[[[",
"[[[[[[[2:;4ujzCJJKKc$      @0KKJJAzjC~TT/U[[[[[[[[",
"[[[[[[[qjq,;>4efjjCd-X    .*yCzkkfw4IE())R[[[[[[[[",
"[[[[[[[2jjjfq2;;;<77;-O  o&;q74<;2qfH)))(I[[[[[[[[",
"[[[[[[[[7jjjjjjfr842,;;;;;;,<7wijjjjz))_R[[[[[[[[[",
"[[[[[[[[[7hjjjzJJJGAZCVytsCCAGGJKJjjC)(T[[[[[[[[[[",
"[[[[[[[[[[,whjkAKKKKKKKKKKKKKKKKKAjkHWI[[[[[[[[[[[",
"[[[[[[[[[[;q<4ihkCJJJKKKKKKKKJAAjhey~/L[[[[[[[[[[[",
"[[[[[[[[[[[3hfq427qwfpflClffpwq88whA/I[[[[[[[[[[[[",
"[[[[[[[[[[[[,wjjkhdar788788wsdzjkjjEP[[[[[[[[[[[[[",
"[[[[[[[[[[[[[[<ffkGKKKKJJKKKKGAhuNm[[[[[[[[[[[[[[[",
"[[[[[[[[[[[[[[[3fpuiissdgdaawwqwwM[[[[[[[[[[[[[[[[",
"[[[[[[[[[[[[[[[[[4wfCAGZZZGZkfw3[[[[[[[[[[[[[[[[[[",
"[[[[[[[[[[[[[[[[[[[;;3377723;;[[[[[[[[[[[[[[[[[[[["
};
