/* XPM */
static char *result[] = {
/* columns rows colors chars-per-pixel */
"50 50 227 2 ",
"   c #166E05",
".  c #167800",
"X  c #1E7B0E",
"o  c #25771C",
"O  c #494900",
"+  c #5E615E",
"@  c #677966",
"#  c #188500",
"$  c #1B8505",
"%  c #1B8801",
"&  c #1A8A00",
"*  c #1B8803",
"=  c #1B8E00",
"-  c #1C8E00",
";  c #1C8F00",
":  c #1C8109",
">  c #1D9200",
",  c #1D9300",
"<  c #1D9400",
"1  c #1E9600",
"2  c #1E9700",
"3  c #1E9900",
"4  c #1F9A00",
"5  c #1F9B00",
"6  c #1F9C00",
"7  c #1F9D00",
"8  c #1F9E00",
"9  c #20890D",
"0  c #208D0C",
"q  c #209E00",
"w  c #209F00",
"e  c #218511",
"r  c #228811",
"t  c #20A000",
"y  c #2C8123",
"u  c #318129",
"i  c #3A8334",
"p  c #3D8537",
"a  c #3E8039",
"s  c #42843E",
"d  c #44873F",
"f  c #548751",
"g  c #568853",
"h  c #5B8758",
"j  c #5B8858",
"k  c #5D8B5B",
"l  c #688E66",
"z  c #6E836C",
"x  c #669264",
"c  c #689166",
"v  c #6E926C",
"b  c #70936E",
"n  c #779376",
"m  c #799277",
"M  c #799A78",
"N  c #8E8E00",
"B  c #919100",
"V  c #959500",
"C  c #969600",
"Z  c #A1A100",
"A  c #A9A900",
"S  c #ABAB00",
"D  c #B9B900",
"F  c #BBBB00",
"G  c #BABA0D",
"H  c #B4B41E",
"J  c #B4B437",
"K  c #C4C400",
"L  c #CACA00",
"P  c #CFCF00",
"I  c #CDCD07",
"U  c #CFCF08",
"Y  c #D5D501",
"T  c #D8D800",
"R  c #DADA02",
"E  c #DFDF00",
"W  c #C0C012",
"Q  c #E0E000",
"!  c #E7E700",
"~  c #E9E900",
"^  c #EAEA00",
"/  c #ECEC00",
"(  c #EFEF00",
")  c #F0F000",
"_  c #F1F100",
"`  c #F3F300",
"'  c #F6F600",
"]  c #F7F700",
"[  c #F8F800",
"{  c #FBFB00",
"}  c #FCFC00",
"|  c #FDFD00",
" . c yellow",
".. c #C2C226",
"X. c #84845F",
"o. c #AFAF54",
"O. c #B4B453",
"+. c #BEBE55",
"@. c #AEAE7F",
"#. c #B4B470",
"$. c #828280",
"%. c #868686",
"&. c #819980",
"*. c #869885",
"=. c #879F86",
"-. c #929292",
";. c #979797",
":. c #919F90",
">. c #9B9B9B",
",. c #9C9E9C",
"<. c #89A288",
"1. c #8EA28E",
"2. c #97A597",
"3. c #94A893",
"4. c #98AA97",
"5. c #9FA99E",
"6. c #A6A683",
"7. c #B3B388",
"8. c #ACAC91",
"9. c #A4A49F",
"0. c #B0B09E",
"q. c gray63",
"w. c gray64",
"e. c #A1AAA0",
"r. c #A4AEA4",
"t. c gray66",
"y. c #AAAAAA",
"u. c #ACACAC",
"i. c gray68",
"p. c #A2B0A1",
"a. c #A6B2A5",
"s. c #A7B0A6",
"d. c #A7B1A7",
"f. c #A8B2A7",
"g. c #AFB8AF",
"h. c gray69",
"j. c #B1B1B1",
"k. c gray70",
"l. c #B4B4B4",
"z. c gray71",
"x. c #B6B6B4",
"c. c #B6B6B6",
"v. c #B7B7B7",
"b. c #B6BAB6",
"n. c #B7BCB7",
"m. c #B9B9B2",
"M. c #BCBCB0",
"N. c gray72",
"B. c #B9B9B9",
"V. c gray73",
"C. c #BBBBBB",
"Z. c #B9BEB9",
"A. c #BABCBA",
"S. c #BCBCBC",
"D. c gray",
"F. c gray75",
"G. c #9CC299",
"H. c #BEC1BE",
"J. c #BFC2BF",
"K. c #C4C4B7",
"L. c #C0C0BF",
"P. c #C0C0C0",
"I. c #C1C1C1",
"U. c #C1C2C1",
"Y. c #C2C3C1",
"T. c #C3C3C3",
"R. c #C3C4C3",
"E. c gray77",
"W. c #C4C6C4",
"Q. c #C6C6C6",
"!. c gray78",
"~. c #C7C8C7",
"^. c #C8C9C8",
"/. c #C9CAC9",
"(. c #CACACA",
"). c #CBCBCB",
"_. c #C9CCC9",
"`. c gray80",
"'. c gray81",
"]. c #C4DBC2",
"[. c #D0D0D0",
"{. c gray82",
"}. c LightGray",
"|. c #D5D5D5",
" X c gray84",
".X c #D7D7D7",
"XX c #D8D8D8",
"oX c gray85",
"OX c #DADADA",
"+X c gray86",
"@X c gainsboro",
"#X c #DDDDDD",
"$X c gray87",
"%X c #DFDFDF",
"&X c gray88",
"*X c #E1E1E1",
"=X c #E2E2E2",
"-X c gray89",
";X c #E4E4E4",
":X c gray90",
">X c #E6E6E6",
",X c #E7E7E7",
"<X c gray91",
"1X c #E9E9E9",
"2X c #EAEAEA",
"3X c gray92",
"4X c #ECECEC",
"5X c gray93",
"6X c #EEEEEE",
"7X c #EFEFEF",
"8X c gray94",
"9X c #F1F1F1",
"0X c gray95",
"qX c #F3F3F3",
"wX c #F4F4F4",
"eX c gray96",
"rX c #F6F6F6",
"tX c gray97",
"yX c #F8F8F8",
"uX c #F9F9F9",
"iX c gray98",
"pX c #FBFBFB",
"aX c gray99",
"sX c #FDFDFD",
"dX c #FEFEFE",
"fX c white",
"gX c None",
/* pixels */
"gXgXgXgXgXgXgXgXgXgXgXgXgXgXgXgXgXgXgXgXgXgXgXgXgXgXgXgXgXgXgXgXgXgXgXgXgXgXgXgXgXgXgXgXgXgXgXgXgXgX",
"gXgXgXgXgXgXgXgXgXgXgXgXgXgXgXgXgXgXgXgXgXgXgXgXgXqXaXdXsXuX<XgXgXgXgXgXgXgXgXgXgXgXgXgXgXgXgXgXgXgX",
"gXgXgXgXgXgXgXgXgXgXgXgXgXgXgXgXgXgX0XsXfXfXsX9XsXaX'.C.D.2XfX<XgXgXgXgXgXgXgXgXgXgXgXgXgXgXgXgXgXgX",
"gXgXgXgXgXgXgXgXgXgXgXgXgXgXgXgXgXaXdX{.k.z.+XfXrXy.1XfXdXP.5XiXgXgXgXgXgXgXgXgXgXgXgXgXgXgXgXgXgXgX",
"gXgXgXgXgXgXgXgXgXgXgXgXgXgXgXgXyXiXy.*XfXfX.XoXk.tXfXfXfXaXB.fXgXgXgXgXgXgXgXgXgXgXgXgXgXgXgXgXgXgX",
"gXgXgXgXgXgXgXgXgXgXgXgXgXgXgXgXfXS.8XfXfXfXfXF.l.fXfXfXfXfXk.fXaXpXeXgXgXgXgXgXgXgXgXgXgXgXgXgXgXgX",
"gXgXgXgXgXgXgXgXgXgXgXgXgXgXgXgXfXv.fXfXfXfXfX-XV.fXfXfXfXiXh..Xv.!.eXfX6XgXgXgXgXgXgXgXgXgXgXgXgXgX",
"gXgXgXgXgXgXgXgXgXgXgXgXgXgXgXgXfXB.fXfXfXfXfX:X$.x.L.=XfXI.-.&XaXqXD.#XfX2XgXgXgXgXgXgXgXgXgXgXgXgX",
"gXgXgXgXgXgXgXgXgXgXgXgXgXgXgXgXfX(.9XfXfXyX0.I ] | ' Y 8.k.dXfXfXfXfX).,XiXgXgXgXgXgXgXgXgXgXgXgXgX",
"gXgXgXgXgXgXgXgXgXgXgXgXgXgXgXeXfXaXj.pXaX6.T }  . . . .` M.fXfXfXfXfXdXE.dXgXgXgXgXgXgXgXgXgXgXgXgX",
"gXgXgXgXgXgXgXgXgXgXgXgXgXgXpXsX!.z.P.h.9.~ O P  . .) B ] O.dXfXfXfXfXfXS.fXgXgXgXgXgXgXgXgXgXgXgXgX",
"gXgXgXgXgXgXgXgXgXgXgXgXgX0XsXi.<XfXfXdXo. ._ |  . .` C [ G pXfXfXfXfXfXz.fXgXgXgXgXgXgXgXgXgXgXgXgX",
"gXgXgXgXgXgXgXgXgXgXgXgXgXsX[.*XfXfXfXwXK ~ |  . . . . . .J sXfXfXfXfX+X XaXgXgXgXgXgXgXgXgXgXgXgXgX",
"gXgXgXgXgXgXgXgXgXgXgXgXgXfXu.fXfXfXfXyXW F !  . . . .L { X.'.sXfXaX'.S.fX9XgXgXgXgXgXgXgXgXgXgXgXgX",
"gXgXgXgXgXgXgXgXgXgXgXgXgXfXj.fXfXfXfXfX7.( N / | ^ Z D U %X1Xi.>.V.;XfXtXgXgXgXgXgXgXgXgXgXgXgXgXgX",
"gXgXgXgXgXgXgXgXgXgXgXgXgXfXS.9XfXfXfXaXw.#.E A V S Q R m.fXfXfXI.eXdX2XgXgXgXgXgXgXgXgXgXgXgXgXgXgX",
"gXgXgXgXgXgXgXgXgXgXgXgXgXyXsXT.{.qX=X;.2XiXK.+...H @.{.fXfXfXfXyXQ.dXgXgXgXgXgXgXgXgXgXgXgXgXgXgXgX",
"gXgXgXgXgXgXgXgXgXgXgXgXgXgXyXfX9X}.D.[.fXfXfXdXpXt.dXfXfXfXfXfXfXV.fXgXgXgXgXgXgXgXgXgXgXgXgXgXgXgX",
"gXgXgXgXgXgXgXgXgXgXgXgXgXgXgXgX0XfXc.aXfXfXfXfXiX+ dXfXfXfXfXfXiXV.fXgXgXgXgXgXgXgXgXgXgXgXgXgXgXgX",
"gXgXgXgXgXgXgXgXgXgXgXgXgXgXgXgXgXfXv.fXfXfXfXfXA.  3XfXfXfXfXfXC.9XuXgXgXgXgXgXgXgXgXgXgXgXgXgXgXgX",
"gXgXgXgXgXgXgXgXgXgXgXgXgXgXgXgXgXdXP.iXfXfXfXR.e v v.sXfXfXaXz.*XfXgXgXgXgXgXgXgXgXgXgXgXgXgXgXgXgX",
"gXgXgXgXgXgXgXgXgXgXgXgXgXgXgXgXgXtXeXV.$X|.k.z t a.0XN.I.C.h.2XfX3XgXgXgXgXgXgXgXgXgXgXgXgXgXgXgXgX",
"gXgXgXgXgXgXgXgXgXgXgXgXgXgXgXgXgXgXsXaX,X6XfXb 7 /.fXfXiXpXfXaX<XgXgXgXgXgXgXgXgXgXgXgXgXgXgXgXgXgX",
"gXgXgXgXgXgXgXgXgXgXgXgXgXgXgXgXgXgXgX7X9XyXiXy > *XrXgX6X6XgXgXgXgXgXgXgXgXgXgXgXgXgXgXgXgXgXgXgXgX",
"gXgXgXgXgXgXgXgXgXgXgXgXgXgXgXgXgXgXgXgXgX0X5X% $ wX8XgXgXgXgXgXgXgXgXgXgXgXgXgXgXgXgXgXgXgXgXgXgXgX",
"gXgXgXgXgXgXgXgXgXgXgXgXgXgXgXgXgXgXgXgXgXtXOX< i dX4XgXgXgXgXgXgXgXgXgXgXgXgXgXgXgXgXgXgXgXgXgXgXgX",
"gXgXgXgXgXgXgXgXgXgXgXgXgX4XgXgXgXgXgXgXgXaXY.q x fXgXgXgXgXgXgXgXgXgXgXgXgXgXgXgXgXgXgXgXgXgXgXgXgX",
"gXgXgXgXgXgXgXgXgXgXgXgXaXiXfXuXgXgXgXgXgXfXd.t M fXgXgXgXgXgXgXgXgXgXgXgXgXgXgXgXgXgXgXgXgXgXgXgXgX",
"gXgXgXgXgXgXgXgXgXgXgXgXsXOXz.tXdX6XgXgXgXfX=.t <.fXgXgXgXgXgXgXgXgXgXgXgXgXgXgXgXgXgXgXgXgXgXgXgXgX",
"gXgXgXgXgXgXgXgXgXgXgXgX6XfX7X%.$XfXyXgX,XfXf t 3.fXgXgXgXgXgXgXgXgXgXgXgXgXgXgXgXgXgXgXgXgXgXgXgXgX",
"gXgXgXgXgXgXgXgXgXgXgXgXgX>XdX0X@ n.sXpX6XpXu t 4.fXgXgXgXgXgXgXgXgXgXgXgXgXgXgXgXgXgXgXgXgXgXgXgXgX",
"gXgXgXgXgXgXgXgXgXgXgXgXgXgXgXdX1Xa 2.uXfXrX: t p.fXgXgXgXgX9XuXdXfXfXyXgXgXgXgXgXgXgXgXgXgXgXgXgXgX",
"gXgXgXgXgXgXgXgXgXgXgXgXgXgXgX1XfX_.> n 8X8X# t g.fXgX2XiXfXpXOXb.q..XdXgXgXgXgXgXgXgXgXgXgXgXgXgXgX",
"gXgXgXgXgXgXgXgXgXgXgXgXgXgXgXgXwXdX&.t k '.& t Z.fXpXfX1Xs.s X e.wXfXrXgXgXgXgXgXgXgXgXgXgXgXgXgXgX",
"gXgXgXgXgXgXgXgXgXgXgXgXgXgXgXgXgXsX-X0 t o - t W.fXeX5.r 7 h @XfXiXgXgXgXgXgXgXgXgXgXgXgXgXgXgXgXgX",
"gXgXgXgXgXgXgXgXgXgXgXgXgXgXgXgXgX4XfX1.t ; = w ~.:Xj 8 4 *.eXfX7XgXgXgXgXgXgXgXgXgXgXgXgXgXgXgXgXgX",
"gXgXgXgXgXgXgXgXgXgXgXgXgXgXgXgXgXgXsX%X; q 7 w ,.d t 5 :.pXaXgXgXgXgXgXgXgXgXgXgXgXgXgXgXgXgXgXgXgX",
"gXgXgXgXgXgXgXgXgXgXgXgXgXgXgXgXgXgX6XdXv t t 1 . t w m iXpXgXgXgXgXgXgXgXgXgXgXgXgXgXgXgXgXgXgXgXgX",
"gXgXgXgXgXgXgXgXgXgXgXgXgXgXgXgXgXgXgXfXJ.7 t 6 w t p 5XsXgXgXgXgXgXgXgXgXgXgXgXgXgXgXgXgXgXgXgXgXgX",
"gXgXgXgXgXgXgXgXgXgXgXgXgXgXgXgXgXgXgXrX6X9 t t t 3 H.fX>XgXgXgXgXgXgXgXgXgXgXgXgXgXgXgXgXgXgXgXgXgX",
"gXgXgXgXgXgXgXgXgXgXgXgXgXgXgXgXgXgXgX2XfXc t t t g iXrXgXgXgXgXgXgXgXgXgXgXgXgXgXgXgXgXgXgXgXgXgXgX",
"gXgXgXgXgXgXgXgXgXgXgXgXgXgXgXgXgXgXgXgXfXf.t t 8 b.fXgXgXgXgXgXgXgXgXgXgXgXgXgXgXgXgXgXgXgXgXgXgXgX",
"gXgXgXgXgXgXgXgXgXgXgXgXgXgXgXgXgXgXgXgXpX^.7 t * 2XyXgXgXgXgXgXgXgXgXgXgXgXgXgXgXgXgXgXgXgXgXgXgXgX",
"gXgXgXgXgXgXgXgXgXgXgXgXgXgXgXgXgXgXgXgXtXXX2 t l fX4XgXgXgXgXgXgXgXgXgXgXgXgXgXgXgXgXgXgXgXgXgXgXgX",
"gXgXgXgXgXgXgXgXgXgXgXgXgXgXgXgXgXgXgXgXeX$X, t r.fXgXgXgXgXgXgXgXgXgXgXgXgXgXgXgXgXgXgXgXgXgXgXgXgX",
"gXgXgXgXgXgXgXgXgXgXgXgXgXgXgXgXgXgXgXgXeX:X; w U.sXgXgXgXgXgXgXgXgXgXgXgXgXgXgXgXgXgXgXgXgXgXgXgXgX",
"gXgXgXgXgXgXgXgXgXgXgXgXgXgXgXgXgXgXgXgXeX,X= 5 `.pXgXgXgXgXgXgXgXgXgXgXgXgXgXgXgXgXgXgXgXgXgXgXgXgX",
"gXgXgXgXgXgXgXgXgXgXgXgXgXgXgXgXgXgXgXgXqX4XG.].9XeXgXgXgXgXgXgXgXgXgXgXgXgXgXgXgXgXgXgXgXgXgXgXgXgX",
"gXgXgXgXgXgXgXgXgXgXgXgXgXgXgXgXgXgXgXgXgXdXfXsXrXgXgXgXgXgXgXgXgXgXgXgXgXgXgXgXgXgXgXgXgXgXgXgXgXgX",
"gXgXgXgXgXgXgXgXgXgXgXgXgXgXgXgXgXgXgXgXgXgXgXgXgXgXgXgXgXgXgXgXgXgXgXgXgXgXgXgXgXgXgXgXgXgXgXgXgXgX"
};
