/* XPM */
static char *e0f01784f4fd4036c65a0d34387d520efDE9xxAi1K9c5ULx[] = {
/* columns rows colors chars-per-pixel */
"50 50 178 2 ",
"   c None",
".  c #702504",
"X  c #792702",
"o  c #762A04",
"O  c #7B2A04",
"+  c #683206",
"@  c #6C3B0A",
"#  c #793A0A",
"$  c #743808",
"%  c #2B6717",
"&  c #2B6B16",
"*  c #276D1F",
"=  c #2A6B1B",
"-  c #366416",
";  c #3F6217",
":  c #3B6319",
">  c #34681C",
",  c #2C7413",
"<  c #2E7C13",
"1  c #2B741B",
"2  c #2B7B1A",
"3  c #327D13",
"4  c #3C7A13",
"5  c #256D21",
"6  c #267224",
"7  c #287524",
"8  c #2A7D24",
"9  c #277428",
"0  c #297928",
"q  c #5A4F13",
"w  c #4F5715",
"e  c #475D13",
"r  c #4B5915",
"t  c #545612",
"y  c #535B16",
"u  c #5E5C18",
"i  c #65470D",
"p  c #6F4D08",
"a  c #764309",
"s  c #755A0B",
"d  c #704D13",
"f  c #695113",
"g  c #5F6B0E",
"h  c #4F6B14",
"j  c #42621B",
"k  c #566310",
"l  c #506B13",
"z  c #56671A",
"x  c #427811",
"c  c #4B7911",
"v  c #64620D",
"b  c #6D6D11",
"n  c #706710",
"m  c #852501",
"M  c #882701",
"N  c #842A03",
"B  c #8C2902",
"V  c #952E02",
"C  c #8A3307",
"Z  c #873D07",
"A  c #843809",
"S  c #8A3E0D",
"D  c #933606",
"F  c #9C3404",
"G  c #973807",
"H  c #9C3907",
"J  c #943A0A",
"K  c #9B3C09",
"L  c #A43703",
"P  c #A33A06",
"I  c #AB3D05",
"U  c #A13E0B",
"Y  c #884207",
"T  c #8E440A",
"R  c #8B480A",
"E  c #92470C",
"W  c #9C400C",
"Q  c #964A0C",
"!  c #92550F",
"~  c #AD4107",
"^  c #A3420C",
"/  c #AB450B",
"(  c #AE490D",
")  c #B1470B",
"_  c #B34B0C",
"`  c #B8500E",
"'  c #AE4C10",
"]  c #B14E10",
"[  c #B95311",
"{  c #2F850F",
"}  c #2C8B0C",
"|  c #328B0F",
" . c #309E07",
".. c #32950B",
"X. c #359C0C",
"o. c #3B9E0E",
"O. c #2D8217",
"+. c #2C8419",
"@. c #2E881B",
"#. c #328315",
"$. c #338C15",
"%. c #388E12",
"&. c #308518",
"*. c #318B1B",
"=. c #359414",
"-. c #399414",
";. c #369B13",
":. c #3B9A14",
">. c #34921B",
",. c #3A9B18",
"<. c #35A307",
"1. c #39A707",
"2. c #3CAB07",
"3. c #3BA40C",
"4. c #3EAB0B",
"5. c #37B107",
"6. c #3DB307",
"7. c #3EBC07",
"8. c #3ABD08",
"9. c #3DA211",
"0. c #2F8820",
"q. c #44AD0E",
"w. c #40B107",
"e. c #41BE07",
"r. c #44B508",
"t. c #49B60C",
"y. c #46B908",
"u. c #4ABC08",
"i. c #40A410",
"p. c #43A911",
"a. c #4AB613",
"s. c #3DC208",
"d. c #3FD308",
"f. c #4EC208",
"g. c #45CC08",
"h. c #52C508",
"j. c #55C808",
"k. c #56C908",
"l. c #57C908",
"z. c #56C808",
"x. c #55CB08",
"c. c #57CA08",
"v. c #56CD08",
"b. c #55C908",
"n. c #58CA08",
"m. c #59CB08",
"M. c #5ACD08",
"N. c #5ACC08",
"B. c #5ACF08",
"V. c #59CD08",
"C. c #5CCF08",
"Z. c #42D308",
"A. c #41D308",
"S. c #4BD308",
"D. c #57D309",
"F. c #55D409",
"G. c #5BD108",
"H. c #5FD308",
"J. c #5DD108",
"K. c #5AD709",
"L. c #5ED509",
"P. c #5FDA09",
"I. c #5EDE09",
"U. c #60D508",
"Y. c #61D608",
"T. c #63D909",
"R. c #60D909",
"E. c #65DA09",
"W. c #62DE09",
"Q. c #66DE09",
"!. c #64DD09",
"~. c #65E009",
"^. c #68E109",
"/. c #6AE209",
"(. c #6AE109",
"). c #6BE409",
"_. c #6FE709",
"`. c #6DE509",
/* pixels */
"                                              ).).(.                                                ",
"                                      `.`.`.(.(.~.(././.                                            ",
"                                      E.n.T.J.n.x.n.C.C.(.                                          ",
"                                  ).`.M.n.M.z.z.n.n.n.n.T.(.                                        ",
"                                `.Y.n.n.n.n.n.n.n.z.n.z.x.U.Q.                                      ",
"                              _.Q.M.z.z.Y.Y.U.n.z.n.z.n.n.E.                                        ",
"                              _.n.n.n.U.M.n.z.n.z.x.z.z.M.E.(.                                      ",
"                            _.`.C.n.x.n.n.n.n.z.z.C.U.E.U.n.Y.u.r.F.K.I.                            ",
"                            _.U.T.n.z.n.z.n.z.n.n.n.n.n.N.U.z.n.w.r.u.v.P.~.                        ",
"                            J.E.C.z.n.z.n.z.n.n.n.z.x.n.n.n.n.n.r.r.u.u.f.v.                        ",
"                          (.x.J.z.z.x.z.z.n.x.x.z.n.M.x.z.n.n.n.r.r.u.u.f.f.P.                      ",
"                          `.n.j.z.n.z.x.z.z.x.j.z.z.M.J.n.z.h.p.w.r.u.u.u.f.W.                      ",
"                          J.j.j.z.h.z.h.j.j.f.j.j.h.j.G.J.h.-.9.6.r.y.h.x.f.J.~.                    ",
"                          h.j.h.h.h.h.h.h.j.j.f.h.h.h.h.M.h.t.3.q.y.u.u.x.f.P.v.                    ",
"                      S.  h.f.h.h.h.h.h.j.f.f.j.f.f.h.h.h.h.a.;.4.y.y.u.f.h.L.f.K.                  ",
"                    g.e.u.f.f.f.f.h.u.f.f.f.f.f.f.f.f.f.f.f.:.$.w.y.u.u.f.G.T.u.D.I.                ",
"                    g.2.w.u.f.f.u.f.t.:.q.h.u.f.f.u.u.f.9.-.&.q.r.y.u.u.f.x.u.y.h.K.L.W.            ",
"              A.Z.g.2.2.w.o.u.u.f.u.i.#.-.u.u.u.u.u.u.u.,.X.2.6.w.y.y.u.f.h.y.u.u.h.f.L.            ",
"              A.7.1.2.2.w.#.%.q.t.:.#.#.#.:.9.u.u.u.u.u.=.=.2.9.3.u.y.f.u.f.u.z.f.h.f.W.            ",
"            A.s.2.6.w.2.w.o.#.#.%.4 2 3 #.#.&.9.i.u.y.&.+.O.$.+.;.y.u.u.u.r.u.u.u.u.v.~.Q.          ",
"          d.8.<.7.7.2.2.w.o.3 #.#.#.= 1 1 #.#.#.#.>.-.#.2 2 O.+.+.q.u.y.w.r.y.y.u.u.h.~.~.~.        ",
"          d.5.<.7.2.2.2.w...#.#.#.#.= = = 1 #.#.2 2 2 * 2 2 O.+.+.:.y.y.w.r.r.u.u.u.f.G.P.~.        ",
"          d.6.<.1.1.2.2.o.| #.#.#.#.1 = = = = 5 * * 5 = ; = 1 2 +.&.9.w.w.y.y.y.u.u.f.h.W.          ",
"          <.<.<.<.1.1.<.< 3 #.#.3 > = > = = = y t = = 5 + e 5 5 7 +.$.w.;.9.r.u.u.f.f.z.Q.          ",
"           .<.<.<.1.1.| 3 3 #.& & = = ; @ t - j i = = * . r 5 5 5 1 +.3.+.=.y.y.u.f.f.h.x.          ",
"           ...X.{ 1.1.3 < < , % = % % = : i O O $ = = j O ; = 5 5 2 +.+.+.*.e.r.u.u.u.z.a.          ",
"        }  .< , < ..| < < , % % % % % = % = : k N < 1 u O > 5 = 5 5 6 +.+.+.>.>.,.,.>.>.            ",
"        , , , , < < < 3 < & r t % % % % = & 3 3 C x 2 d # = 5 = q j 5 6 +.@.@.@.@.*.*.*.            ",
"            , , 3 , , & % % e $ - = % = * 3 3 3 D v 4 S f > * u @ > 6 5 7 7 +.@.*.*.0.0             ",
"            , , , % % & 3 , & p a , , 3 3 3 3   K Z b J l 2 z A j 5 5 5 6 6 7 7 8 0 0               ",
"                        3 3 3 4 Y s 3 4 3 3 #.  K J W R 3 b T l 3 1 < 3 3   9 9 9 9 0               ",
"                          3 #.3 c Q R           ^ ^ ^ E ! J g #.3 3 3                               ",
"                                    ^ D         ^ ^ ^ K D                                           ",
"                                      ^ G     ^ ' ^ J                                               ",
"                                      / / K U / ' ' H                                               ",
"                                        / / / ] ' /                                                 ",
"                                          _ _ [ _ /                                                 ",
"                                          _ [ [ _ ^                                                 ",
"                                          _ ` ` / U                                                 ",
"                                          / ` _ ) U                                                 ",
"                                            _ ) / P                                                 ",
"                                            ` / / H                                                 ",
"                                          F ) I ~ P                                                 ",
"                                          H I ~ P H                                                 ",
"                                          F I I F H V                                               ",
"                                        B F L L F V B                                               ",
"                                      B B F V F F B M M                                             ",
"                                    M M m M B M F B m O m                                           ",
"                                  O O   O B M M m B m m o X                                         ",
"                                          O o o O       X                                           "
};
